<?xml version="1.0" encoding="utf-8"?>
<!-- Generator: Adobe Illustrator 21.1.0, SVG Export Plug-In . SVG Version: 6.00 Build 0)  -->
<svg version="1.1" id="Layer_1" xmlns="http://www.w3.org/2000/svg" xmlns:xlink="http://www.w3.org/1999/xlink" x="0px" y="0px"
	 viewBox="0 0 58 58" style="enable-background:new 0 0 58 58;" xml:space="preserve">
<style type="text/css">
	.st0{fill:#FFFFFF;}
	.st1{fill:#AA0BA6;}
</style>
<title>start0</title>
<path class="st0" d="M28.9,9H29c4.9,0,9.5,1.9,13,5.3l3.8-3.9c0.2-0.2,0.5-0.2,0.7-0.1c0.2,0.1,0.4,0.3,0.4,0.6l-0.6,13.3H33.8
	c-0.4,0-0.6-0.3-0.7-0.6c0-0.2,0.1-0.5,0.3-0.6l3.8-3.8c-4.7-4.6-12.3-4.5-17,0.2s-4.5,12.3,0.2,17c2.3,2.2,5.3,3.4,8.4,3.4
	c4.5-0.2,8.5-3,10.3-7l6.1,2.8v0.1c-4.2,8.1-10.9,11.6-18,10.8c-10.3-0.8-18-9.8-17.2-20.2C11.1,16.6,19.1,9.1,28.9,9z"/>
<circle class="st1" cx="29" cy="29" r="29"/>
<polygon class="st0" points="39.8,28.7 9.9,11.4 9.9,46 "/>
<polygon class="st0" points="53.8,28.7 23.9,11.4 23.9,46 "/>
</svg>
