<svg id="Layer_1" data-name="Layer 1" xmlns="http://www.w3.org/2000/svg" viewBox="0 0 58 58"><defs><style>.cls-1{fill:#fff;}.cls-2{fill:#0020b8;}</style></defs><title>showall</title><path class="cls-1" d="M29.85,10H30a18.79,18.79,0,0,1,13,5.3l3.85-3.89a.63.63,0,0,1,.69-.14.65.65,0,0,1,.41.59l-.64,13.29H34.84a.64.64,0,0,1-.32-1.2l3.79-3.84A12,12,0,1,0,30,40.71a12.07,12.07,0,0,0,10.34-7.05l6.14,2.83,0,.09C42.25,44.7,35.62,48.13,28.51,47.4A18.73,18.73,0,0,1,29.85,10Z" transform="translate(-1 -1)"/><path class="cls-2" d="M59,30A29,29,0,1,0,30,59,29,29,0,0,0,59,30Z" transform="translate(-1 -1)"/><path class="cls-1" d="M29.68,18.72c-7.14,0-13.61,3.91-18.39,10.25a1.48,1.48,0,0,0,0,1.77C16.07,37.09,22.54,41,29.68,41S43.3,37.09,48.08,30.75a1.48,1.48,0,0,0,0-1.77C43.3,22.63,36.82,18.72,29.68,18.72Zm.51,19a7.86,7.86,0,1,1,7.33-7.33A7.86,7.86,0,0,1,30.2,37.71ZM30,34.08a4.23,4.23,0,1,1,4-4A4.23,4.23,0,0,1,30,34.08Z" transform="translate(-1 -1)"/></svg>