<svg id="Layer_1" data-name="Layer 1" xmlns="http://www.w3.org/2000/svg" viewBox="0 0 58 58"><defs><style>.cls-1{fill:#0020b8;}.cls-2{fill:#fff;}</style></defs><title>start1</title><circle class="cls-1" cx="29" cy="29" r="29"/><path class="cls-2" d="M29.85,11H30a18.79,18.79,0,0,1,13,5.3l3.85-3.89a.63.63,0,0,1,.69-.14.65.65,0,0,1,.41.59l-.64,13.29H34.84a.64.64,0,0,1-.32-1.2l3.79-3.84A12,12,0,1,0,30,41.71a12.07,12.07,0,0,0,10.34-7.05l6.14,2.83,0,.09C42.25,45.7,35.62,49.13,28.51,48.4A18.73,18.73,0,0,1,29.85,11Z" transform="translate(-1 -1)"/></svg>
