<svg id="Layer_1" data-name="Layer 1" xmlns="http://www.w3.org/2000/svg" viewBox="0 0 58 58"><defs><style>.cls-1{fill:#fff;}.cls-2{fill:#1c8b00;}</style></defs><title>solution0</title><path class="cls-1" d="M29.85,10H30a18.79,18.79,0,0,1,13,5.3l3.85-3.89a.63.63,0,0,1,.69-.14.65.65,0,0,1,.41.59l-.64,13.29H34.84a.64.64,0,0,1-.32-1.2l3.79-3.84A12,12,0,1,0,30,40.71a12.07,12.07,0,0,0,10.34-7.05l6.14,2.83,0,.09C42.25,44.7,35.62,48.13,28.51,47.4A18.73,18.73,0,0,1,29.85,10Z" transform="translate(-1 -1)"/><path class="cls-2" d="M59,30A29,29,0,1,0,30,59,29,29,0,0,0,59,30Z" transform="translate(-1 -1)"/><path class="cls-1" d="M45.24,16l-.92-.79a3.73,3.73,0,0,0-5.2.33L23.65,32.68l-4.67-4a3.73,3.73,0,0,0-5.2.32l-.82.9a3.73,3.73,0,0,0,.27,5.27L21.79,43a3.73,3.73,0,0,0,5.38-.29L45.64,21.25a3.73,3.73,0,0,0-.4-5.26Z" transform="translate(-1 -1)"/><line class="cls-1" x1="9" y1="8" x2="48" y2="50"/><path class="cls-1" d="M7.88,11.12l39,42c2.63,2.84,6.87-1.41,4.24-4.24l-39-42C9.49,4,5.25,8.29,7.88,11.12Z" transform="translate(-1 -1)"/></svg>