<svg id="Layer_1" data-name="Layer 1" xmlns="http://www.w3.org/2000/svg" viewBox="0 0 58 58"><defs><style>.cls-1{fill:#fff;}.cls-2{fill:#ff8000;}</style></defs><title>help</title><path class="cls-1" d="M29.85,10H30a18.79,18.79,0,0,1,13,5.3l3.85-3.89a.63.63,0,0,1,.69-.14.65.65,0,0,1,.41.59l-.64,13.29H34.84a.64.64,0,0,1-.32-1.2l3.79-3.84A12,12,0,1,0,30,40.71a12.07,12.07,0,0,0,10.34-7.05l6.14,2.83,0,.09C42.25,44.7,35.62,48.13,28.51,47.4A18.73,18.73,0,0,1,29.85,10Z" transform="translate(-1 -1)"/><path class="cls-2" d="M59,30A29,29,0,1,0,30,59,29,29,0,0,0,59,30Z" transform="translate(-1 -1)"/><path class="cls-1" d="M17.34,22.32A9.79,9.79,0,0,1,19,17.11a12.72,12.72,0,0,1,4.82-4.37A15.17,15.17,0,0,1,31.21,11a15.79,15.79,0,0,1,6.93,1.45,11.25,11.25,0,0,1,4.64,3.94,9.67,9.67,0,0,1,1.64,5.42,8.37,8.37,0,0,1-.93,4,12.35,12.35,0,0,1-2.22,3Q40,30.09,36.65,33.07a18.77,18.77,0,0,0-1.48,1.48,6,6,0,0,0-.83,1.16,5.68,5.68,0,0,0-.42,1.06q-.15.53-.45,1.85a3,3,0,0,1-3.22,2.82,3.29,3.29,0,0,1-2.37-.92,3.62,3.62,0,0,1-1-2.74,9.6,9.6,0,0,1,2.57-6.86,42.8,42.8,0,0,1,3.14-3q1.73-1.52,2.5-2.29a7.76,7.76,0,0,0,1.3-1.72A4.16,4.16,0,0,0,37,21.86a4.79,4.79,0,0,0-1.61-3.66,5.88,5.88,0,0,0-4.16-1.49,5.75,5.75,0,0,0-4.39,1.5,12,12,0,0,0-2.38,4.43q-.92,3.06-3.49,3.06a3.43,3.43,0,0,1-2.56-1.07A3.27,3.27,0,0,1,17.34,22.32ZM30.56,52a4.26,4.26,0,0,1-2.88-1.07,3.75,3.75,0,0,1-1.23-3,3.85,3.85,0,0,1,1.19-2.87,4,4,0,0,1,2.92-1.16,4,4,0,0,1,4,4,3.78,3.78,0,0,1-1.22,3A4.11,4.11,0,0,1,30.56,52Z" transform="translate(-1 -1)"/></svg>